# xmcd
# 
# Track frame offsets:
#     150
#     12885
#     27872
#     40540
#     56040
#     70850
#     85882
#     99975
#     117192
#     128815
#     145675
#     156672
# 
# Disc length: 2248
# 
# Revision: 5
# Processed by: cddbd v1.5.2PL0 Copyright (c) Steve Scherf et al.
# Submitted via: BonkEnc v1.0.6
# 
DISCID=9708c60c
DTITLE=AMADO BATISTA - ESCUTA...
DYEAR=0
DGENRE=
TTITLE0=PELO MEU CAMINHO
TTITLE1=MONOTOMIA
TTITLE2=COLA TEU CORPO NO MEU
TTITLE3=VOCE NAO VOLTOU
TTITLE4=GAROTINHA INDECISA
TTITLE5=EU E VOCE
TTITLE6=MEU BEM
TTITLE7=NAO É SEGREDO PRA ELA
TTITLE8=NAO PODE SER
TTITLE9=ESCUTA
TTITLE10=MEU EX-AMOR
TTITLE11=DE QUE ADIANTA
EXTD=
EXTT0=
EXTT1=
EXTT2=
EXTT3=
EXTT4=
EXTT5=
EXTT6=
EXTT7=
EXTT8=
EXTT9=
EXTT10=
EXTT11=
PLAYORDER=
